<?xml version="1.0" encoding="utf-8"?>
<!-- Generator: Adobe Illustrator 27.0.0, SVG Export Plug-In . SVG Version: 6.00 Build 0)  -->
<svg version="1.1" id="Ebene_1" xmlns="http://www.w3.org/2000/svg" xmlns:xlink="http://www.w3.org/1999/xlink" x="0px" y="0px"
	 viewBox="0 0 226.8 226.8" style="enable-background:new 0 0 226.8 226.8;" xml:space="preserve">
<style type="text/css">
	.st0{fill:#14968C;}
</style>
<g>
	<g>
		<g>
			<path class="st0" d="M189.7,123.5L55.9,44.9C42.9,37.2,23.2,23,19.5,0l-8.9,15.7c-28.1,49.4,6.8,76,26.6,87.6l133.8,78.6
				c13,7.6,32.7,21.8,36.5,44.9l8.9-15.7C244.4,161.6,209.4,135,189.7,123.5z"/>
		</g>
		<g>
			<path class="st0" d="M0,138.9v31.2c0,31.2,25.5,56.7,56.7,56.7h71.9L32,170C21.8,164,7.5,154,0,138.9z"/>
		</g>
		<g>
			<path class="st0" d="M170.1,0H98.2l96.6,56.7c10.2,6,24.5,16,32,31.2V56.7C226.8,25.5,201.3,0,170.1,0z"/>
		</g>
	</g>
</g>
</svg>
